<svg width="20" height="20" viewBox="0 0 20 20" fill="none" xmlns="http://www.w3.org/2000/svg">
<path fill-rule="evenodd" clip-rule="evenodd" d="M13 0.5C13 0.77614 13.2239 1 13.5 1C13.2239 1 13 1.22386 13 1.5C13 1.22386 12.7761 1 12.5 1C12.7761 1 13 0.77614 13 0.5ZM12 0.5C12 0.22386 12.2239 0 12.5 0C12.7761 0 13 0.22386 13 0.5C13 0.22386 13.2239 0 13.5 0C13.7761 0 14 0.22386 14 0.5C14 0.77614 13.7761 1 13.5 1C13.7761 1 14 1.22386 14 1.5C14 1.77614 13.7761 2 13.5 2C13.2239 2 13 1.77614 13 1.5C13 1.77614 12.7761 2 12.5 2C12.2239 2 12 1.77614 12 1.5C12 1.22386 12.2239 1 12.5 1C12.2239 1 12 0.77614 12 0.5ZM11.5 1C11.7761 1 12 0.77614 12 0.5C12 0.22386 11.7761 0 11.5 0C11.2239 0 11 0.22386 11 0.5C11 0.22386 10.7761 0 10.5 0C10.2239 0 10 0.22386 10 0.5C10 0.22386 9.7761 0 9.5 0C9.2239 0 9 0.22386 9 0.5C9 0.22386 8.7761 0 8.5 0C8.2239 0 8 0.22386 8 0.5C8 0.22386 7.77614 0 7.5 0C7.22386 0 7 0.22386 7 0.5C7 0.22386 6.77614 0 6.5 0C6.22386 0 6 0.22386 6 0.5C6 0.77614 6.22386 1 6.5 1C6.22386 1 6 1.22386 6 1.5C6 1.22386 5.77614 1 5.5 1C5.22386 1 5 1.22386 5 1.5C5 1.77614 5.22386 2 5.5 2C5.22386 2 5 2.22386 5 2.5C5 2.22386 4.77614 2 4.5 2C4.22386 2 4 2.22386 4 2.5C4 2.77614 4.22386 3 4.5 3C4.22386 3 4 3.22386 4 3.5C4 3.22386 3.77614 3 3.5 3C3.22386 3 3 3.22386 3 3.5C3 3.77614 3.22386 4 3.5 4C3.22386 4 3 4.22386 3 4.5C3 4.22386 2.77614 4 2.5 4C2.22386 4 2 4.22386 2 4.5C2 4.77614 2.22386 5 2.5 5C2.22386 5 2 5.22386 2 5.5C2 5.22386 1.77614 5 1.5 5C1.22386 5 1 5.22386 1 5.5C1 5.77614 1.22386 6 1.5 6C1.22386 6 1 6.22386 1 6.5C1 6.22386 0.77614 6 0.5 6C0.22386 6 0 6.22386 0 6.5C0 6.77614 0.22386 7 0.5 7C0.22386 7 0 7.22386 0 7.5C0 7.77614 0.22386 8 0.5 8C0.22386 8 0 8.2239 0 8.5C0 8.7761 0.22386 9 0.5 9C0.22386 9 0 9.2239 0 9.5C0 9.7761 0.22386 10 0.5 10C0.22386 10 0 10.2239 0 10.5C0 10.7761 0.22386 11 0.5 11C0.22386 11 0 11.2239 0 11.5C0 11.7761 0.22386 12 0.5 12C0.22386 12 0 12.2239 0 12.5C0 12.7761 0.22386 13 0.5 13C0.22386 13 0 13.2239 0 13.5C0 13.7761 0.22386 14 0.5 14C0.77614 14 1 13.7761 1 13.5C1 13.7761 1.22386 14 1.5 14C1.22386 14 1 14.2239 1 14.5C1 14.7761 1.22386 15 1.5 15C1.77614 15 2 14.7761 2 14.5C2 14.7761 2.22386 15 2.5 15C2.22386 15 2 15.2239 2 15.5C2 15.7761 2.22386 16 2.5 16C2.77614 16 3 15.7761 3 15.5C3 15.7761 3.22386 16 3.5 16C3.22386 16 3 16.2239 3 16.5C3 16.7761 3.22386 17 3.5 17C3.77614 17 4 16.7761 4 16.5C4 16.7761 4.22386 17 4.5 17C4.22386 17 4 17.2239 4 17.5C4 17.7761 4.22386 18 4.5 18C4.77614 18 5 17.7761 5 17.5C5 17.7761 5.22386 18 5.5 18C5.22386 18 5 18.2239 5 18.5C5 18.7761 5.22386 19 5.5 19C5.77614 19 6 18.7761 6 18.5C6 18.7761 6.22386 19 6.5 19C6.22386 19 6 19.2239 6 19.5C6 19.7761 6.22386 20 6.5 20C6.77614 20 7 19.7761 7 19.5C7 19.7761 7.22386 20 7.5 20C7.77614 20 8 19.7761 8 19.5C8 19.7761 8.2239 20 8.5 20C8.7761 20 9 19.7761 9 19.5C9 19.7761 9.2239 20 9.5 20C9.7761 20 10 19.7761 10 19.5C10 19.7761 10.2239 20 10.5 20C10.7761 20 11 19.7761 11 19.5C11 19.7761 11.2239 20 11.5 20C11.7761 20 12 19.7761 12 19.5C12 19.7761 12.2239 20 12.5 20C12.7761 20 13 19.7761 13 19.5C13 19.7761 13.2239 20 13.5 20C13.7761 20 14 19.7761 14 19.5C14 19.2239 13.7761 19 13.5 19C13.7761 19 14 18.7761 14 18.5C14 18.7761 14.2239 19 14.5 19C14.7761 19 15 18.7761 15 18.5C15 18.2239 14.7761 18 14.5 18C14.7761 18 15 17.7761 15 17.5C15 17.7761 15.2239 18 15.5 18C15.7761 18 16 17.7761 16 17.5C16 17.2239 15.7761 17 15.5 17C15.7761 17 16 16.7761 16 16.5C16 16.7761 16.2239 17 16.5 17C16.7761 17 17 16.7761 17 16.5C17 16.2239 16.7761 16 16.5 16C16.7761 16 17 15.7761 17 15.5C17 15.7761 17.2239 16 17.5 16C17.7761 16 18 15.7761 18 15.5C18 15.2239 17.7761 15 17.5 15C17.7761 15 18 14.7761 18 14.5C18 14.7761 18.2239 15 18.5 15C18.7761 15 19 14.7761 19 14.5C19 14.2239 18.7761 14 18.5 14C18.7761 14 19 13.7761 19 13.5C19 13.7761 19.2239 14 19.5 14C19.7761 14 20 13.7761 20 13.5C20 13.2239 19.7761 13 19.5 13C19.7761 13 20 12.7761 20 12.5C20 12.2239 19.7761 12 19.5 12C19.7761 12 20 11.7761 20 11.5C20 11.2239 19.7761 11 19.5 11C19.7761 11 20 10.7761 20 10.5C20 10.2239 19.7761 10 19.5 10C19.7761 10 20 9.7761 20 9.5C20 9.2239 19.7761 9 19.5 9C19.7761 9 20 8.7761 20 8.5C20 8.2239 19.7761 8 19.5 8C19.7761 8 20 7.77614 20 7.5C20 7.22386 19.7761 7 19.5 7C19.7761 7 20 6.77614 20 6.5C20 6.22386 19.7761 6 19.5 6C19.2239 6 19 6.22386 19 6.5C19 6.22386 18.7761 6 18.5 6C18.7761 6 19 5.77614 19 5.5C19 5.22386 18.7761 5 18.5 5C18.2239 5 18 5.22386 18 5.5C18 5.22386 17.7761 5 17.5 5C17.7761 5 18 4.77614 18 4.5C18 4.22386 17.7761 4 17.5 4C17.2239 4 17 4.22386 17 4.5C17 4.22386 16.7761 4 16.5 4C16.7761 4 17 3.77614 17 3.5C17 3.22386 16.7761 3 16.5 3C16.2239 3 16 3.22386 16 3.5C16 3.22386 15.7761 3 15.5 3C15.7761 3 16 2.77614 16 2.5C16 2.22386 15.7761 2 15.5 2C15.2239 2 15 2.22386 15 2.5C15 2.22386 14.7761 2 14.5 2C14.7761 2 15 1.77614 15 1.5C15 1.22386 14.7761 1 14.5 1C14.2239 1 14 1.22386 14 1.5C14 1.77614 14.2239 2 14.5 2C14.2239 2 14 2.22386 14 2.5C14 2.22386 13.7761 2 13.5 2C13.2239 2 13 2.22386 13 2.5C13 2.77614 13.2239 3 13.5 3C13.7761 3 14 2.77614 14 2.5C14 2.77614 14.2239 3 14.5 3C14.2239 3 14 3.22386 14 3.5C14 3.77614 14.2239 4 14.5 4C14.7761 4 15 3.77614 15 3.5C15 3.77614 15.2239 4 15.5 4C15.2239 4 15 4.22386 15 4.5C15 4.77614 15.2239 5 15.5 5C15.7761 5 16 4.77614 16 4.5C16 4.77614 16.2239 5 16.5 5C16.2239 5 16 5.22386 16 5.5C16 5.77614 16.2239 6 16.5 6C16.7761 6 17 5.77614 17 5.5C17 5.77614 17.2239 6 17.5 6C17.2239 6 17 6.22386 17 6.5C17 6.77614 17.2239 7 17.5 7C17.7761 7 18 6.77614 18 6.5C18 6.77614 18.2239 7 18.5 7C18.2239 7 18 7.22386 18 7.5C18 7.77614 18.2239 8 18.5 8C18.2239 8 18 8.2239 18 8.5C18 8.7761 18.2239 9 18.5 9C18.2239 9 18 9.2239 18 9.5C18 9.7761 18.2239 10 18.5 10C18.2239 10 18 10.2239 18 10.5C18 10.7761 18.2239 11 18.5 11C18.2239 11 18 11.2239 18 11.5C18 11.7761 18.2239 12 18.5 12C18.2239 12 18 12.2239 18 12.5C18 12.7761 18.2239 13 18.5 13C18.2239 13 18 13.2239 18 13.5C18 13.2239 17.7761 13 17.5 13C17.2239 13 17 13.2239 17 13.5C17 13.7761 17.2239 14 17.5 14C17.2239 14 17 14.2239 17 14.5C17 14.2239 16.7761 14 16.5 14C16.2239 14 16 14.2239 16 14.5C16 14.7761 16.2239 15 16.5 15C16.2239 15 16 15.2239 16 15.5C16 15.2239 15.7761 15 15.5 15C15.2239 15 15 15.2239 15 15.5C15 15.7761 15.2239 16 15.5 16C15.2239 16 15 16.2239 15 16.5C15 16.2239 14.7761 16 14.5 16C14.2239 16 14 16.2239 14 16.5C14 16.7761 14.2239 17 14.5 17C14.2239 17 14 17.2239 14 17.5C14 17.2239 13.7761 17 13.5 17C13.2239 17 13 17.2239 13 17.5C13 17.7761 13.2239 18 13.5 18C13.2239 18 13 18.2239 13 18.5C13 18.2239 12.7761 18 12.5 18C12.2239 18 12 18.2239 12 18.5C12 18.2239 11.7761 18 11.5 18C11.2239 18 11 18.2239 11 18.5C11 18.2239 10.7761 18 10.5 18C10.2239 18 10 18.2239 10 18.5C10 18.2239 9.7761 18 9.5 18C9.2239 18 9 18.2239 9 18.5C9 18.2239 8.7761 18 8.5 18C8.2239 18 8 18.2239 8 18.5C8 18.2239 7.77614 18 7.5 18C7.22386 18 7 18.2239 7 18.5C7 18.2239 6.77614 18 6.5 18C6.77614 18 7 17.7761 7 17.5C7 17.2239 6.77614 17 6.5 17C6.22386 17 6 17.2239 6 17.5C6 17.2239 5.77614 17 5.5 17C5.77614 17 6 16.7761 6 16.5C6 16.2239 5.77614 16 5.5 16C5.22386 16 5 16.2239 5 16.5C5 16.2239 4.77614 16 4.5 16C4.77614 16 5 15.7761 5 15.5C5 15.2239 4.77614 15 4.5 15C4.22386 15 4 15.2239 4 15.5C4 15.2239 3.77614 15 3.5 15C3.77614 15 4 14.7761 4 14.5C4 14.2239 3.77614 14 3.5 14C3.22386 14 3 14.2239 3 14.5C3 14.2239 2.77614 14 2.5 14C2.77614 14 3 13.7761 3 13.5C3 13.2239 2.77614 13 2.5 13C2.22386 13 2 13.2239 2 13.5C2 13.2239 1.77614 13 1.5 13C1.77614 13 2 12.7761 2 12.5C2 12.2239 1.77614 12 1.5 12C1.77614 12 2 11.7761 2 11.5C2 11.2239 1.77614 11 1.5 11C1.77614 11 2 10.7761 2 10.5C2 10.2239 1.77614 10 1.5 10C1.77614 10 2 9.7761 2 9.5C2 9.2239 1.77614 9 1.5 9C1.77614 9 2 8.7761 2 8.5C2 8.2239 1.77614 8 1.5 8C1.77614 8 2 7.77614 2 7.5C2 7.22386 1.77614 7 1.5 7C1.77614 7 2 6.77614 2 6.5C2 6.77614 2.22386 7 2.5 7C2.77614 7 3 6.77614 3 6.5C3 6.22386 2.77614 6 2.5 6C2.77614 6 3 5.77614 3 5.5C3 5.77614 3.22386 6 3.5 6C3.77614 6 4 5.77614 4 5.5C4 5.22386 3.77614 5 3.5 5C3.77614 5 4 4.77614 4 4.5C4 4.77614 4.22386 5 4.5 5C4.77614 5 5 4.77614 5 4.5C5 4.22386 4.77614 4 4.5 4C4.77614 4 5 3.77614 5 3.5C5 3.77614 5.22386 4 5.5 4C5.77614 4 6 3.77614 6 3.5C6 3.22386 5.77614 3 5.5 3C5.77614 3 6 2.77614 6 2.5C6 2.77614 6.22386 3 6.5 3C6.77614 3 7 2.77614 7 2.5C7 2.22386 6.77614 2 6.5 2C6.77614 2 7 1.77614 7 1.5C7 1.77614 7.22386 2 7.5 2C7.77614 2 8 1.77614 8 1.5C8 1.77614 8.2239 2 8.5 2C8.7761 2 9 1.77614 9 1.5C9 1.77614 9.2239 2 9.5 2C9.7761 2 10 1.77614 10 1.5C10 1.77614 10.2239 2 10.5 2C10.7761 2 11 1.77614 11 1.5C11 1.77614 11.2239 2 11.5 2C11.7761 2 12 1.77614 12 1.5C12 1.22386 11.7761 1 11.5 1ZM10.5 1C10.7761 1 11 0.77614 11 0.5C11 0.77614 11.2239 1 11.5 1C11.2239 1 11 1.22386 11 1.5C11 1.22386 10.7761 1 10.5 1ZM9.5 1C9.7761 1 10 0.77614 10 0.5C10 0.77614 10.2239 1 10.5 1C10.2239 1 10 1.22386 10 1.5C10 1.22386 9.7761 1 9.5 1ZM8.5 1C8.7761 1 9 0.77614 9 0.5C9 0.77614 9.2239 1 9.5 1C9.2239 1 9 1.22386 9 1.5C9 1.22386 8.7761 1 8.5 1ZM7.5 1C7.77614 1 8 0.77614 8 0.5C8 0.77614 8.2239 1 8.5 1C8.2239 1 8 1.22386 8 1.5C8 1.22386 7.77614 1 7.5 1ZM7.5 1C7.22386 1 7 1.22386 7 1.5C7 1.22386 6.77614 1 6.5 1C6.77614 1 7 0.77614 7 0.5C7 0.77614 7.22386 1 7.5 1ZM6.5 2C6.22386 2 6 2.22386 6 2.5C6 2.22386 5.77614 2 5.5 2C5.77614 2 6 1.77614 6 1.5C6 1.77614 6.22386 2 6.5 2ZM5.5 3C5.22386 3 5 3.22386 5 3.5C5 3.22386 4.77614 3 4.5 3C4.77614 3 5 2.77614 5 2.5C5 2.77614 5.22386 3 5.5 3ZM4.5 4C4.22386 4 4 4.22386 4 4.5C4 4.22386 3.77614 4 3.5 4C3.77614 4 4 3.77614 4 3.5C4 3.77614 4.22386 4 4.5 4ZM3.5 5C3.22386 5 3 5.22386 3 5.5C3 5.22386 2.77614 5 2.5 5C2.77614 5 3 4.77614 3 4.5C3 4.77614 3.22386 5 3.5 5ZM2.5 6C2.22386 6 2 6.22386 2 6.5C2 6.22386 1.77614 6 1.5 6C1.77614 6 2 5.77614 2 5.5C2 5.77614 2.22386 6 2.5 6ZM1 7.5C1 7.77614 1.22386 8 1.5 8C1.22386 8 1 8.2239 1 8.5C1 8.2239 0.77614 8 0.5 8C0.77614 8 1 7.77614 1 7.5ZM1 7.5C1 7.22386 1.22386 7 1.5 7C1.22386 7 1 6.77614 1 6.5C1 6.77614 0.77614 7 0.5 7C0.77614 7 1 7.22386 1 7.5ZM1 9.5C1 9.2239 0.77614 9 0.5 9C0.77614 9 1 8.7761 1 8.5C1 8.7761 1.22386 9 1.5 9C1.22386 9 1 9.2239 1 9.5ZM1 10.5C1 10.2239 0.77614 10 0.5 10C0.77614 10 1 9.7761 1 9.5C1 9.7761 1.22386 10 1.5 10C1.22386 10 1 10.2239 1 10.5ZM1 11.5C1 11.2239 0.77614 11 0.5 11C0.77614 11 1 10.7761 1 10.5C1 10.7761 1.22386 11 1.5 11C1.22386 11 1 11.2239 1 11.5ZM1 12.5C1 12.2239 0.77614 12 0.5 12C0.77614 12 1 11.7761 1 11.5C1 11.7761 1.22386 12 1.5 12C1.22386 12 1 12.2239 1 12.5ZM1 12.5C1 12.7761 1.22386 13 1.5 13C1.22386 13 1 13.2239 1 13.5C1 13.2239 0.77614 13 0.5 13C0.77614 13 1 12.7761 1 12.5ZM2 13.5C2 13.7761 2.22386 14 2.5 14C2.22386 14 2 14.2239 2 14.5C2 14.2239 1.77614 14 1.5 14C1.77614 14 2 13.7761 2 13.5ZM3 14.5C3 14.7761 3.22386 15 3.5 15C3.22386 15 3 15.2239 3 15.5C3 15.2239 2.77614 15 2.5 15C2.77614 15 3 14.7761 3 14.5ZM4 15.5C4 15.7761 4.22386 16 4.5 16C4.22386 16 4 16.2239 4 16.5C4 16.2239 3.77614 16 3.5 16C3.77614 16 4 15.7761 4 15.5ZM5 16.5C5 16.7761 5.22386 17 5.5 17C5.22386 17 5 17.2239 5 17.5C5 17.2239 4.77614 17 4.5 17C4.77614 17 5 16.7761 5 16.5ZM6 17.5C6 17.7761 6.22386 18 6.5 18C6.22386 18 6 18.2239 6 18.5C6 18.2239 5.77614 18 5.5 18C5.77614 18 6 17.7761 6 17.5ZM7.5 19C7.77614 19 8 18.7761 8 18.5C8 18.7761 8.2239 19 8.5 19C8.2239 19 8 19.2239 8 19.5C8 19.2239 7.77614 19 7.5 19ZM7.5 19C7.22386 19 7 18.7761 7 18.5C7 18.7761 6.77614 19 6.5 19C6.77614 19 7 19.2239 7 19.5C7 19.2239 7.22386 19 7.5 19ZM9.5 19C9.2239 19 9 19.2239 9 19.5C9 19.2239 8.7761 19 8.5 19C8.7761 19 9 18.7761 9 18.5C9 18.7761 9.2239 19 9.5 19ZM10.5 19C10.2239 19 10 19.2239 10 19.5C10 19.2239 9.7761 19 9.5 19C9.7761 19 10 18.7761 10 18.5C10 18.7761 10.2239 19 10.5 19ZM11.5 19C11.2239 19 11 19.2239 11 19.5C11 19.2239 10.7761 19 10.5 19C10.7761 19 11 18.7761 11 18.5C11 18.7761 11.2239 19 11.5 19ZM12.5 19C12.2239 19 12 19.2239 12 19.5C12 19.2239 11.7761 19 11.5 19C11.7761 19 12 18.7761 12 18.5C12 18.7761 12.2239 19 12.5 19ZM12.5 19C12.7761 19 13 18.7761 13 18.5C13 18.7761 13.2239 19 13.5 19C13.2239 19 13 19.2239 13 19.5C13 19.2239 12.7761 19 12.5 19ZM13.5 18C13.7761 18 14 17.7761 14 17.5C14 17.7761 14.2239 18 14.5 18C14.2239 18 14 18.2239 14 18.5C14 18.2239 13.7761 18 13.5 18ZM14.5 17C14.7761 17 15 16.7761 15 16.5C15 16.7761 15.2239 17 15.5 17C15.2239 17 15 17.2239 15 17.5C15 17.2239 14.7761 17 14.5 17ZM15.5 16C15.7761 16 16 15.7761 16 15.5C16 15.7761 16.2239 16 16.5 16C16.2239 16 16 16.2239 16 16.5C16 16.2239 15.7761 16 15.5 16ZM16.5 15C16.7761 15 17 14.7761 17 14.5C17 14.7761 17.2239 15 17.5 15C17.2239 15 17 15.2239 17 15.5C17 15.2239 16.7761 15 16.5 15ZM17.5 14C17.7761 14 18 13.7761 18 13.5C18 13.7761 18.2239 14 18.5 14C18.2239 14 18 14.2239 18 14.5C18 14.2239 17.7761 14 17.5 14ZM19 12.5C19 12.2239 18.7761 12 18.5 12C18.7761 12 19 11.7761 19 11.5C19 11.7761 19.2239 12 19.5 12C19.2239 12 19 12.2239 19 12.5ZM19 12.5C19 12.7761 18.7761 13 18.5 13C18.7761 13 19 13.2239 19 13.5C19 13.2239 19.2239 13 19.5 13C19.2239 13 19 12.7761 19 12.5ZM19 10.5C19 10.7761 19.2239 11 19.5 11C19.2239 11 19 11.2239 19 11.5C19 11.2239 18.7761 11 18.5 11C18.7761 11 19 10.7761 19 10.5ZM19 9.5C19 9.7761 19.2239 10 19.5 10C19.2239 10 19 10.2239 19 10.5C19 10.2239 18.7761 10 18.5 10C18.7761 10 19 9.7761 19 9.5ZM19 8.5C19 8.7761 19.2239 9 19.5 9C19.2239 9 19 9.2239 19 9.5C19 9.2239 18.7761 9 18.5 9C18.7761 9 19 8.7761 19 8.5ZM19 7.5C19 7.77614 19.2239 8 19.5 8C19.2239 8 19 8.2239 19 8.5C19 8.2239 18.7761 8 18.5 8C18.7761 8 19 7.77614 19 7.5ZM19 7.5C19 7.22386 18.7761 7 18.5 7C18.7761 7 19 6.77614 19 6.5C19 6.77614 19.2239 7 19.5 7C19.2239 7 19 7.22386 19 7.5ZM18 6.5C18 6.22386 17.7761 6 17.5 6C17.7761 6 18 5.77614 18 5.5C18 5.77614 18.2239 6 18.5 6C18.2239 6 18 6.22386 18 6.5ZM17 5.5C17 5.22386 16.7761 5 16.5 5C16.7761 5 17 4.77614 17 4.5C17 4.77614 17.2239 5 17.5 5C17.2239 5 17 5.22386 17 5.5ZM16 4.5C16 4.22386 15.7761 4 15.5 4C15.7761 4 16 3.77614 16 3.5C16 3.77614 16.2239 4 16.5 4C16.2239 4 16 4.22386 16 4.5ZM15 3.5C15 3.22386 14.7761 3 14.5 3C14.7761 3 15 2.77614 15 2.5C15 2.77614 15.2239 3 15.5 3C15.2239 3 15 3.22386 15 3.5ZM10 6.5C10 6.22386 10.2239 6 10.5 6C10.7761 6 11 6.22386 11 6.5C11 6.77614 10.7761 7 10.5 7C10.2239 7 10 6.77614 10 6.5ZM9.5 7C9.7761 7 10 6.77614 10 6.5C10 6.22386 9.7761 6 9.5 6C9.2239 6 9 6.22386 9 6.5C9 6.77614 9.2239 7 9.5 7ZM10 7.5C10 7.22386 9.7761 7 9.5 7C9.2239 7 9 7.22386 9 7.5C9 7.77614 9.2239 8 9.5 8C9.2239 8 9 8.2239 9 8.5C9 8.7761 9.2239 9 9.5 9C9.2239 9 9 9.2239 9 9.5C9 9.2239 8.7761 9 8.5 9C8.2239 9 8 9.2239 8 9.5C8 9.2239 7.77614 9 7.5 9C7.22386 9 7 9.2239 7 9.5C7 9.2239 6.77614 9 6.5 9C6.22386 9 6 9.2239 6 9.5C6 9.7761 6.22386 10 6.5 10C6.22386 10 6 10.2239 6 10.5C6 10.7761 6.22386 11 6.5 11C6.77614 11 7 10.7761 7 10.5C7 10.7761 7.22386 11 7.5 11C7.77614 11 8 10.7761 8 10.5C8 10.7761 8.2239 11 8.5 11C8.7761 11 9 10.7761 9 10.5C9 10.7761 9.2239 11 9.5 11C9.2239 11 9 11.2239 9 11.5C9 11.7761 9.2239 12 9.5 12C9.2239 12 9 12.2239 9 12.5C9 12.7761 9.2239 13 9.5 13C9.2239 13 9 13.2239 9 13.5C9 13.7761 9.2239 14 9.5 14C9.7761 14 10 13.7761 10 13.5C10 13.7761 10.2239 14 10.5 14C10.7761 14 11 13.7761 11 13.5C11 13.2239 10.7761 13 10.5 13C10.7761 13 11 12.7761 11 12.5C11 12.2239 10.7761 12 10.5 12C10.7761 12 11 11.7761 11 11.5C11 11.2239 10.7761 11 10.5 11C10.7761 11 11 10.7761 11 10.5C11 10.7761 11.2239 11 11.5 11C11.7761 11 12 10.7761 12 10.5C12 10.7761 12.2239 11 12.5 11C12.7761 11 13 10.7761 13 10.5C13 10.7761 13.2239 11 13.5 11C13.7761 11 14 10.7761 14 10.5C14 10.2239 13.7761 10 13.5 10C13.7761 10 14 9.7761 14 9.5C14 9.2239 13.7761 9 13.5 9C13.2239 9 13 9.2239 13 9.5C13 9.2239 12.7761 9 12.5 9C12.2239 9 12 9.2239 12 9.5C12 9.2239 11.7761 9 11.5 9C11.2239 9 11 9.2239 11 9.5C11 9.2239 10.7761 9 10.5 9C10.7761 9 11 8.7761 11 8.5C11 8.2239 10.7761 8 10.5 8C10.7761 8 11 7.77614 11 7.5C11 7.22386 10.7761 7 10.5 7C10.2239 7 10 7.22386 10 7.5ZM10 8.5C10 8.2239 9.7761 8 9.5 8C9.7761 8 10 7.77614 10 7.5C10 7.77614 10.2239 8 10.5 8C10.2239 8 10 8.2239 10 8.5ZM10 9.5C10 9.2239 9.7761 9 9.5 9C9.7761 9 10 8.7761 10 8.5C10 8.7761 10.2239 9 10.5 9C10.2239 9 10 9.2239 10 9.5ZM10.5 10C10.2239 10 10 9.7761 10 9.5C10 9.7761 9.7761 10 9.5 10C9.2239 10 9 9.7761 9 9.5C9 9.7761 8.7761 10 8.5 10C8.2239 10 8 9.7761 8 9.5C8 9.7761 7.77614 10 7.5 10C7.22386 10 7 9.7761 7 9.5C7 9.7761 6.77614 10 6.5 10C6.77614 10 7 10.2239 7 10.5C7 10.2239 7.22386 10 7.5 10C7.77614 10 8 10.2239 8 10.5C8 10.2239 8.2239 10 8.5 10C8.7761 10 9 10.2239 9 10.5C9 10.2239 9.2239 10 9.5 10C9.7761 10 10 10.2239 10 10.5C10 10.7761 9.7761 11 9.5 11C9.7761 11 10 11.2239 10 11.5C10 11.7761 9.7761 12 9.5 12C9.7761 12 10 12.2239 10 12.5C10 12.7761 9.7761 13 9.5 13C9.7761 13 10 13.2239 10 13.5C10 13.2239 10.2239 13 10.5 13C10.2239 13 10 12.7761 10 12.5C10 12.2239 10.2239 12 10.5 12C10.2239 12 10 11.7761 10 11.5C10 11.2239 10.2239 11 10.5 11C10.2239 11 10 10.7761 10 10.5C10 10.2239 10.2239 10 10.5 10ZM10.5 10C10.7761 10 11 10.2239 11 10.5C11 10.2239 11.2239 10 11.5 10C11.7761 10 12 10.2239 12 10.5C12 10.2239 12.2239 10 12.5 10C12.7761 10 13 10.2239 13 10.5C13 10.2239 13.2239 10 13.5 10C13.2239 10 13 9.7761 13 9.5C13 9.7761 12.7761 10 12.5 10C12.2239 10 12 9.7761 12 9.5C12 9.7761 11.7761 10 11.5 10C11.2239 10 11 9.7761 11 9.5C11 9.7761 10.7761 10 10.5 10Z" fill="white"/>
</svg>
