<svg width="20" height="20" viewBox="0 0 20 20" fill="none" xmlns="http://www.w3.org/2000/svg">
<path fill-rule="evenodd" clip-rule="evenodd" d="M3.33333 2.91667C3.33333 2.68655 3.51988 2.5 3.75 2.5C3.98012 2.5 4.16667 2.68655 4.16667 2.91667C4.16667 3.14678 3.98012 3.33333 3.75 3.33333C3.51988 3.33333 3.33333 3.14678 3.33333 2.91667ZM2.91667 3.33333C3.14678 3.33333 3.33333 3.14678 3.33333 2.91667C3.33333 2.68655 3.14678 2.5 2.91667 2.5C2.68655 2.5 2.5 2.68655 2.5 2.91667C2.5 3.14678 2.68655 3.33333 2.91667 3.33333ZM3.33333 3.75C3.33333 3.51988 3.14678 3.33333 2.91667 3.33333C2.68655 3.33333 2.5 3.51988 2.5 3.75C2.5 3.98012 2.68655 4.16667 2.91667 4.16667C2.68655 4.16667 2.5 4.35322 2.5 4.58333C2.5 4.81345 2.68655 5 2.91667 5C2.68655 5 2.5 5.18655 2.5 5.41667C2.5 5.64678 2.68655 5.83333 2.91667 5.83333C2.68655 5.83333 2.5 6.01988 2.5 6.25C2.5 6.48012 2.68655 6.66667 2.91667 6.66667C2.68655 6.66667 2.5 6.85322 2.5 7.08333C2.5 7.31345 2.68655 7.5 2.91667 7.5C2.68655 7.5 2.5 7.68655 2.5 7.91667C2.5 8.14678 2.68655 8.33333 2.91667 8.33333C2.68655 8.33333 2.5 8.51992 2.5 8.75C2.5 8.98008 2.68655 9.16667 2.91667 9.16667C2.68655 9.16667 2.5 9.35325 2.5 9.58333C2.5 9.81342 2.68655 10 2.91667 10C2.68655 10 2.5 10.1866 2.5 10.4167C2.5 10.6467 2.68655 10.8333 2.91667 10.8333C2.68655 10.8333 2.5 11.0199 2.5 11.25C2.5 11.4801 2.68655 11.6667 2.91667 11.6667C2.68655 11.6667 2.5 11.8532 2.5 12.0833C2.5 12.3134 2.68655 12.5 2.91667 12.5C2.68655 12.5 2.5 12.6866 2.5 12.9167C2.5 13.1467 2.68655 13.3333 2.91667 13.3333C2.68655 13.3333 2.5 13.5199 2.5 13.75C2.5 13.9801 2.68655 14.1667 2.91667 14.1667C2.68655 14.1667 2.5 14.3532 2.5 14.5833C2.5 14.8134 2.68655 15 2.91667 15C2.68655 15 2.5 15.1866 2.5 15.4167C2.5 15.6467 2.68655 15.8333 2.91667 15.8333C2.68655 15.8333 2.5 16.0199 2.5 16.25C2.5 16.4801 2.68655 16.6667 2.91667 16.6667C2.68655 16.6667 2.5 16.8532 2.5 17.0833C2.5 17.3134 2.68655 17.5 2.91667 17.5C3.14678 17.5 3.33333 17.3134 3.33333 17.0833C3.33333 17.3134 3.51988 17.5 3.75 17.5C3.98012 17.5 4.16667 17.3134 4.16667 17.0833C4.16667 17.3134 4.35322 17.5 4.58333 17.5C4.81345 17.5 5 17.3134 5 17.0833C5 17.3134 5.18655 17.5 5.41667 17.5C5.64678 17.5 5.83333 17.3134 5.83333 17.0833C5.83333 17.3134 6.01988 17.5 6.25 17.5C6.48012 17.5 6.66667 17.3134 6.66667 17.0833C6.66667 17.3134 6.85322 17.5 7.08333 17.5C7.31345 17.5 7.5 17.3134 7.5 17.0833C7.5 17.3134 7.68655 17.5 7.91667 17.5C8.14678 17.5 8.33333 17.3134 8.33333 17.0833C8.33333 17.3134 8.51992 17.5 8.75 17.5C8.98008 17.5 9.16667 17.3134 9.16667 17.0833C9.16667 17.3134 9.35325 17.5 9.58333 17.5C9.81342 17.5 10 17.3134 10 17.0833C10 17.3134 10.1866 17.5 10.4167 17.5C10.6467 17.5 10.8333 17.3134 10.8333 17.0833C10.8333 17.3134 11.0199 17.5 11.25 17.5C11.4801 17.5 11.6667 17.3134 11.6667 17.0833C11.6667 17.3134 11.8532 17.5 12.0833 17.5C12.3134 17.5 12.5 17.3134 12.5 17.0833C12.5 17.3134 12.6866 17.5 12.9167 17.5C13.1467 17.5 13.3333 17.3134 13.3333 17.0833C13.3333 17.3134 13.5199 17.5 13.75 17.5C13.9801 17.5 14.1667 17.3134 14.1667 17.0833C14.1667 17.3134 14.3532 17.5 14.5833 17.5C14.8134 17.5 15 17.3134 15 17.0833C15 17.3134 15.1866 17.5 15.4167 17.5C15.6467 17.5 15.8333 17.3134 15.8333 17.0833C15.8333 17.3134 16.0199 17.5 16.25 17.5C16.4801 17.5 16.6667 17.3134 16.6667 17.0833C16.6667 17.3134 16.8532 17.5 17.0833 17.5C17.3134 17.5 17.5 17.3134 17.5 17.0833C17.5 16.8532 17.3134 16.6667 17.0833 16.6667C17.3134 16.6667 17.5 16.4801 17.5 16.25C17.5 16.0199 17.3134 15.8333 17.0833 15.8333C17.3134 15.8333 17.5 15.6467 17.5 15.4167C17.5 15.1866 17.3134 15 17.0833 15C17.3134 15 17.5 14.8134 17.5 14.5833C17.5 14.3532 17.3134 14.1667 17.0833 14.1667C17.3134 14.1667 17.5 13.9801 17.5 13.75C17.5 13.5199 17.3134 13.3333 17.0833 13.3333C17.3134 13.3333 17.5 13.1467 17.5 12.9167C17.5 12.6866 17.3134 12.5 17.0833 12.5C17.3134 12.5 17.5 12.3134 17.5 12.0833C17.5 11.8532 17.3134 11.6667 17.0833 11.6667C17.3134 11.6667 17.5 11.4801 17.5 11.25C17.5 11.0199 17.3134 10.8333 17.0833 10.8333C16.8532 10.8333 16.6667 11.0199 16.6667 11.25C16.6667 11.0199 16.4801 10.8333 16.25 10.8333C16.0199 10.8333 15.8333 11.0199 15.8333 11.25C15.8333 11.4801 16.0199 11.6667 16.25 11.6667C16.0199 11.6667 15.8333 11.8532 15.8333 12.0833C15.8333 12.3134 16.0199 12.5 16.25 12.5C16.0199 12.5 15.8333 12.6866 15.8333 12.9167C15.8333 13.1467 16.0199 13.3333 16.25 13.3333C16.0199 13.3333 15.8333 13.5199 15.8333 13.75C15.8333 13.9801 16.0199 14.1667 16.25 14.1667C16.0199 14.1667 15.8333 14.3532 15.8333 14.5833C15.8333 14.8134 16.0199 15 16.25 15C16.0199 15 15.8333 15.1866 15.8333 15.4167C15.8333 15.6467 16.0199 15.8333 16.25 15.8333C16.0199 15.8333 15.8333 16.0199 15.8333 16.25C15.8333 16.0199 15.6467 15.8333 15.4167 15.8333C15.1866 15.8333 15 16.0199 15 16.25C15 16.0199 14.8134 15.8333 14.5833 15.8333C14.3532 15.8333 14.1667 16.0199 14.1667 16.25C14.1667 16.0199 13.9801 15.8333 13.75 15.8333C13.5199 15.8333 13.3333 16.0199 13.3333 16.25C13.3333 16.0199 13.1467 15.8333 12.9167 15.8333C12.6866 15.8333 12.5 16.0199 12.5 16.25C12.5 16.0199 12.3134 15.8333 12.0833 15.8333C11.8532 15.8333 11.6667 16.0199 11.6667 16.25C11.6667 16.0199 11.4801 15.8333 11.25 15.8333C11.0199 15.8333 10.8333 16.0199 10.8333 16.25C10.8333 16.0199 10.6467 15.8333 10.4167 15.8333C10.1866 15.8333 10 16.0199 10 16.25C10 16.0199 9.81342 15.8333 9.58333 15.8333C9.35325 15.8333 9.16667 16.0199 9.16667 16.25C9.16667 16.0199 8.98008 15.8333 8.75 15.8333C8.51992 15.8333 8.33333 16.0199 8.33333 16.25C8.33333 16.0199 8.14678 15.8333 7.91667 15.8333C7.68655 15.8333 7.5 16.0199 7.5 16.25C7.5 16.0199 7.31345 15.8333 7.08333 15.8333C6.85322 15.8333 6.66667 16.0199 6.66667 16.25C6.66667 16.0199 6.48012 15.8333 6.25 15.8333C6.01988 15.8333 5.83333 16.0199 5.83333 16.25C5.83333 16.0199 5.64678 15.8333 5.41667 15.8333C5.18655 15.8333 5 16.0199 5 16.25C5 16.0199 4.81345 15.8333 4.58333 15.8333C4.35322 15.8333 4.16667 16.0199 4.16667 16.25C4.16667 16.0199 3.98012 15.8333 3.75 15.8333C3.98012 15.8333 4.16667 15.6467 4.16667 15.4167C4.16667 15.1866 3.98012 15 3.75 15C3.98012 15 4.16667 14.8134 4.16667 14.5833C4.16667 14.3532 3.98012 14.1667 3.75 14.1667C3.98012 14.1667 4.16667 13.9801 4.16667 13.75C4.16667 13.5199 3.98012 13.3333 3.75 13.3333C3.98012 13.3333 4.16667 13.1467 4.16667 12.9167C4.16667 12.6866 3.98012 12.5 3.75 12.5C3.98012 12.5 4.16667 12.3134 4.16667 12.0833C4.16667 11.8532 3.98012 11.6667 3.75 11.6667C3.98012 11.6667 4.16667 11.4801 4.16667 11.25C4.16667 11.0199 3.98012 10.8333 3.75 10.8333C3.98012 10.8333 4.16667 10.6467 4.16667 10.4167C4.16667 10.1866 3.98012 10 3.75 10C3.98012 10 4.16667 9.81342 4.16667 9.58333C4.16667 9.35325 3.98012 9.16667 3.75 9.16667C3.98012 9.16667 4.16667 8.98008 4.16667 8.75C4.16667 8.51992 3.98012 8.33333 3.75 8.33333C3.98012 8.33333 4.16667 8.14678 4.16667 7.91667C4.16667 7.68655 3.98012 7.5 3.75 7.5C3.98012 7.5 4.16667 7.31345 4.16667 7.08333C4.16667 6.85322 3.98012 6.66667 3.75 6.66667C3.98012 6.66667 4.16667 6.48012 4.16667 6.25C4.16667 6.01988 3.98012 5.83333 3.75 5.83333C3.98012 5.83333 4.16667 5.64678 4.16667 5.41667C4.16667 5.18655 3.98012 5 3.75 5C3.98012 5 4.16667 4.81345 4.16667 4.58333C4.16667 4.35322 3.98012 4.16667 3.75 4.16667C3.98012 4.16667 4.16667 3.98012 4.16667 3.75C4.16667 3.98012 4.35322 4.16667 4.58333 4.16667C4.81345 4.16667 5 3.98012 5 3.75C5 3.98012 5.18655 4.16667 5.41667 4.16667C5.64678 4.16667 5.83333 3.98012 5.83333 3.75C5.83333 3.98012 6.01988 4.16667 6.25 4.16667C6.48012 4.16667 6.66667 3.98012 6.66667 3.75C6.66667 3.98012 6.85322 4.16667 7.08333 4.16667C7.31345 4.16667 7.5 3.98012 7.5 3.75C7.5 3.98012 7.68655 4.16667 7.91667 4.16667C8.14678 4.16667 8.33333 3.98012 8.33333 3.75C8.33333 3.98012 8.51992 4.16667 8.75 4.16667C8.98008 4.16667 9.16667 3.98012 9.16667 3.75C9.16667 3.51988 8.98008 3.33333 8.75 3.33333C8.98008 3.33333 9.16667 3.14678 9.16667 2.91667C9.16667 2.68655 8.98008 2.5 8.75 2.5C8.51992 2.5 8.33333 2.68655 8.33333 2.91667C8.33333 2.68655 8.14678 2.5 7.91667 2.5C7.68655 2.5 7.5 2.68655 7.5 2.91667C7.5 2.68655 7.31345 2.5 7.08333 2.5C6.85322 2.5 6.66667 2.68655 6.66667 2.91667C6.66667 2.68655 6.48012 2.5 6.25 2.5C6.01988 2.5 5.83333 2.68655 5.83333 2.91667C5.83333 2.68655 5.64678 2.5 5.41667 2.5C5.18655 2.5 5 2.68655 5 2.91667C5 2.68655 4.81345 2.5 4.58333 2.5C4.35322 2.5 4.16667 2.68655 4.16667 2.91667C4.16667 3.14678 4.35322 3.33333 4.58333 3.33333C4.35322 3.33333 4.16667 3.51988 4.16667 3.75C4.16667 3.51988 3.98012 3.33333 3.75 3.33333C3.51988 3.33333 3.33333 3.51988 3.33333 3.75ZM5.41667 3.33333C5.18655 3.33333 5 3.51988 5 3.75C5 3.51988 4.81345 3.33333 4.58333 3.33333C4.81345 3.33333 5 3.14678 5 2.91667C5 3.14678 5.18655 3.33333 5.41667 3.33333ZM6.25 3.33333C6.01988 3.33333 5.83333 3.51988 5.83333 3.75C5.83333 3.51988 5.64678 3.33333 5.41667 3.33333C5.64678 3.33333 5.83333 3.14678 5.83333 2.91667C5.83333 3.14678 6.01988 3.33333 6.25 3.33333ZM7.08333 3.33333C6.85322 3.33333 6.66667 3.51988 6.66667 3.75C6.66667 3.51988 6.48012 3.33333 6.25 3.33333C6.48012 3.33333 6.66667 3.14678 6.66667 2.91667C6.66667 3.14678 6.85322 3.33333 7.08333 3.33333ZM7.91667 3.33333C7.68655 3.33333 7.5 3.51988 7.5 3.75C7.5 3.51988 7.31345 3.33333 7.08333 3.33333C7.31345 3.33333 7.5 3.14678 7.5 2.91667C7.5 3.14678 7.68655 3.33333 7.91667 3.33333ZM7.91667 3.33333C8.14678 3.33333 8.33333 3.14678 8.33333 2.91667C8.33333 3.14678 8.51992 3.33333 8.75 3.33333C8.51992 3.33333 8.33333 3.51988 8.33333 3.75C8.33333 3.51988 8.14678 3.33333 7.91667 3.33333ZM3.33333 4.58333C3.33333 4.35322 3.14678 4.16667 2.91667 4.16667C3.14678 4.16667 3.33333 3.98012 3.33333 3.75C3.33333 3.98012 3.51988 4.16667 3.75 4.16667C3.51988 4.16667 3.33333 4.35322 3.33333 4.58333ZM3.33333 5.41667C3.33333 5.18655 3.14678 5 2.91667 5C3.14678 5 3.33333 4.81345 3.33333 4.58333C3.33333 4.81345 3.51988 5 3.75 5C3.51988 5 3.33333 5.18655 3.33333 5.41667ZM3.33333 6.25C3.33333 6.01988 3.14678 5.83333 2.91667 5.83333C3.14678 5.83333 3.33333 5.64678 3.33333 5.41667C3.33333 5.64678 3.51988 5.83333 3.75 5.83333C3.51988 5.83333 3.33333 6.01988 3.33333 6.25ZM3.33333 7.08333C3.33333 6.85322 3.14678 6.66667 2.91667 6.66667C3.14678 6.66667 3.33333 6.48012 3.33333 6.25C3.33333 6.48012 3.51988 6.66667 3.75 6.66667C3.51988 6.66667 3.33333 6.85322 3.33333 7.08333ZM3.33333 7.91667C3.33333 7.68655 3.14678 7.5 2.91667 7.5C3.14678 7.5 3.33333 7.31345 3.33333 7.08333C3.33333 7.31345 3.51988 7.5 3.75 7.5C3.51988 7.5 3.33333 7.68655 3.33333 7.91667ZM3.33333 8.75C3.33333 8.51992 3.14678 8.33333 2.91667 8.33333C3.14678 8.33333 3.33333 8.14678 3.33333 7.91667C3.33333 8.14678 3.51988 8.33333 3.75 8.33333C3.51988 8.33333 3.33333 8.51992 3.33333 8.75ZM3.33333 9.58333C3.33333 9.35325 3.14678 9.16667 2.91667 9.16667C3.14678 9.16667 3.33333 8.98008 3.33333 8.75C3.33333 8.98008 3.51988 9.16667 3.75 9.16667C3.51988 9.16667 3.33333 9.35325 3.33333 9.58333ZM3.33333 10.4167C3.33333 10.1866 3.14678 10 2.91667 10C3.14678 10 3.33333 9.81342 3.33333 9.58333C3.33333 9.81342 3.51988 10 3.75 10C3.51988 10 3.33333 10.1866 3.33333 10.4167ZM3.33333 11.25C3.33333 11.0199 3.14678 10.8333 2.91667 10.8333C3.14678 10.8333 3.33333 10.6467 3.33333 10.4167C3.33333 10.6467 3.51988 10.8333 3.75 10.8333C3.51988 10.8333 3.33333 11.0199 3.33333 11.25ZM3.33333 12.0833C3.33333 11.8532 3.14678 11.6667 2.91667 11.6667C3.14678 11.6667 3.33333 11.4801 3.33333 11.25C3.33333 11.4801 3.51988 11.6667 3.75 11.6667C3.51988 11.6667 3.33333 11.8532 3.33333 12.0833ZM3.33333 12.9167C3.33333 12.6866 3.14678 12.5 2.91667 12.5C3.14678 12.5 3.33333 12.3134 3.33333 12.0833C3.33333 12.3134 3.51988 12.5 3.75 12.5C3.51988 12.5 3.33333 12.6866 3.33333 12.9167ZM3.33333 13.75C3.33333 13.5199 3.14678 13.3333 2.91667 13.3333C3.14678 13.3333 3.33333 13.1467 3.33333 12.9167C3.33333 13.1467 3.51988 13.3333 3.75 13.3333C3.51988 13.3333 3.33333 13.5199 3.33333 13.75ZM3.33333 14.5833C3.33333 14.3532 3.14678 14.1667 2.91667 14.1667C3.14678 14.1667 3.33333 13.9801 3.33333 13.75C3.33333 13.9801 3.51988 14.1667 3.75 14.1667C3.51988 14.1667 3.33333 14.3532 3.33333 14.5833ZM3.33333 15.4167C3.33333 15.1866 3.14678 15 2.91667 15C3.14678 15 3.33333 14.8134 3.33333 14.5833C3.33333 14.8134 3.51988 15 3.75 15C3.51988 15 3.33333 15.1866 3.33333 15.4167ZM3.33333 16.25C3.33333 16.0199 3.14678 15.8333 2.91667 15.8333C3.14678 15.8333 3.33333 15.6467 3.33333 15.4167C3.33333 15.6467 3.51988 15.8333 3.75 15.8333C3.51988 15.8333 3.33333 16.0199 3.33333 16.25ZM3.75 16.6667C3.51988 16.6667 3.33333 16.8532 3.33333 17.0833C3.33333 16.8532 3.14678 16.6667 2.91667 16.6667C3.14678 16.6667 3.33333 16.4801 3.33333 16.25C3.33333 16.4801 3.51988 16.6667 3.75 16.6667ZM4.58333 16.6667C4.35322 16.6667 4.16667 16.8532 4.16667 17.0833C4.16667 16.8532 3.98012 16.6667 3.75 16.6667C3.98012 16.6667 4.16667 16.4801 4.16667 16.25C4.16667 16.4801 4.35322 16.6667 4.58333 16.6667ZM5.41667 16.6667C5.18655 16.6667 5 16.8532 5 17.0833C5 16.8532 4.81345 16.6667 4.58333 16.6667C4.81345 16.6667 5 16.4801 5 16.25C5 16.4801 5.18655 16.6667 5.41667 16.6667ZM6.25 16.6667C6.01988 16.6667 5.83333 16.8532 5.83333 17.0833C5.83333 16.8532 5.64678 16.6667 5.41667 16.6667C5.64678 16.6667 5.83333 16.4801 5.83333 16.25C5.83333 16.4801 6.01988 16.6667 6.25 16.6667ZM7.08333 16.6667C6.85322 16.6667 6.66667 16.8532 6.66667 17.0833C6.66667 16.8532 6.48012 16.6667 6.25 16.6667C6.48012 16.6667 6.66667 16.4801 6.66667 16.25C6.66667 16.4801 6.85322 16.6667 7.08333 16.6667ZM7.91667 16.6667C7.68655 16.6667 7.5 16.8532 7.5 17.0833C7.5 16.8532 7.31345 16.6667 7.08333 16.6667C7.31345 16.6667 7.5 16.4801 7.5 16.25C7.5 16.4801 7.68655 16.6667 7.91667 16.6667ZM8.75 16.6667C8.51992 16.6667 8.33333 16.8532 8.33333 17.0833C8.33333 16.8532 8.14678 16.6667 7.91667 16.6667C8.14678 16.6667 8.33333 16.4801 8.33333 16.25C8.33333 16.4801 8.51992 16.6667 8.75 16.6667ZM9.58333 16.6667C9.35325 16.6667 9.16667 16.8532 9.16667 17.0833C9.16667 16.8532 8.98008 16.6667 8.75 16.6667C8.98008 16.6667 9.16667 16.4801 9.16667 16.25C9.16667 16.4801 9.35325 16.6667 9.58333 16.6667ZM10.4167 16.6667C10.1866 16.6667 10 16.8532 10 17.0833C10 16.8532 9.81342 16.6667 9.58333 16.6667C9.81342 16.6667 10 16.4801 10 16.25C10 16.4801 10.1866 16.6667 10.4167 16.6667ZM11.25 16.6667C11.0199 16.6667 10.8333 16.8532 10.8333 17.0833C10.8333 16.8532 10.6467 16.6667 10.4167 16.6667C10.6467 16.6667 10.8333 16.4801 10.8333 16.25C10.8333 16.4801 11.0199 16.6667 11.25 16.6667ZM12.0833 16.6667C11.8532 16.6667 11.6667 16.8532 11.6667 17.0833C11.6667 16.8532 11.4801 16.6667 11.25 16.6667C11.4801 16.6667 11.6667 16.4801 11.6667 16.25C11.6667 16.4801 11.8532 16.6667 12.0833 16.6667ZM12.9167 16.6667C12.6866 16.6667 12.5 16.8532 12.5 17.0833C12.5 16.8532 12.3134 16.6667 12.0833 16.6667C12.3134 16.6667 12.5 16.4801 12.5 16.25C12.5 16.4801 12.6866 16.6667 12.9167 16.6667ZM13.75 16.6667C13.5199 16.6667 13.3333 16.8532 13.3333 17.0833C13.3333 16.8532 13.1467 16.6667 12.9167 16.6667C13.1467 16.6667 13.3333 16.4801 13.3333 16.25C13.3333 16.4801 13.5199 16.6667 13.75 16.6667ZM14.5833 16.6667C14.3532 16.6667 14.1667 16.8532 14.1667 17.0833C14.1667 16.8532 13.9801 16.6667 13.75 16.6667C13.9801 16.6667 14.1667 16.4801 14.1667 16.25C14.1667 16.4801 14.3532 16.6667 14.5833 16.6667ZM15.4167 16.6667C15.1866 16.6667 15 16.8532 15 17.0833C15 16.8532 14.8134 16.6667 14.5833 16.6667C14.8134 16.6667 15 16.4801 15 16.25C15 16.4801 15.1866 16.6667 15.4167 16.6667ZM16.25 16.6667C16.0199 16.6667 15.8333 16.8532 15.8333 17.0833C15.8333 16.8532 15.6467 16.6667 15.4167 16.6667C15.6467 16.6667 15.8333 16.4801 15.8333 16.25C15.8333 16.4801 16.0199 16.6667 16.25 16.6667ZM16.6667 16.25C16.6667 16.4801 16.8532 16.6667 17.0833 16.6667C16.8532 16.6667 16.6667 16.8532 16.6667 17.0833C16.6667 16.8532 16.4801 16.6667 16.25 16.6667C16.4801 16.6667 16.6667 16.4801 16.6667 16.25ZM16.6667 15.4167C16.6667 15.6467 16.8532 15.8333 17.0833 15.8333C16.8532 15.8333 16.6667 16.0199 16.6667 16.25C16.6667 16.0199 16.4801 15.8333 16.25 15.8333C16.4801 15.8333 16.6667 15.6467 16.6667 15.4167ZM16.6667 14.5833C16.6667 14.8134 16.8532 15 17.0833 15C16.8532 15 16.6667 15.1866 16.6667 15.4167C16.6667 15.1866 16.4801 15 16.25 15C16.4801 15 16.6667 14.8134 16.6667 14.5833ZM16.6667 13.75C16.6667 13.9801 16.8532 14.1667 17.0833 14.1667C16.8532 14.1667 16.6667 14.3532 16.6667 14.5833C16.6667 14.3532 16.4801 14.1667 16.25 14.1667C16.4801 14.1667 16.6667 13.9801 16.6667 13.75ZM16.6667 12.9167C16.6667 13.1467 16.8532 13.3333 17.0833 13.3333C16.8532 13.3333 16.6667 13.5199 16.6667 13.75C16.6667 13.5199 16.4801 13.3333 16.25 13.3333C16.4801 13.3333 16.6667 13.1467 16.6667 12.9167ZM16.6667 12.0833C16.6667 12.3134 16.8532 12.5 17.0833 12.5C16.8532 12.5 16.6667 12.6866 16.6667 12.9167C16.6667 12.6866 16.4801 12.5 16.25 12.5C16.4801 12.5 16.6667 12.3134 16.6667 12.0833ZM16.6667 12.0833C16.6667 11.8532 16.4801 11.6667 16.25 11.6667C16.4801 11.6667 16.6667 11.4801 16.6667 11.25C16.6667 11.4801 16.8532 11.6667 17.0833 11.6667C16.8532 11.6667 16.6667 11.8532 16.6667 12.0833ZM6.66667 12.9167C6.66667 12.6866 6.85322 12.5 7.08333 12.5C7.31345 12.5 7.5 12.6866 7.5 12.9167C7.5 13.1467 7.31345 13.3333 7.08333 13.3333C6.85322 13.3333 6.66667 13.1467 6.66667 12.9167ZM7.91667 12.5C7.68655 12.5 7.5 12.6866 7.5 12.9167C7.5 13.1467 7.68655 13.3333 7.91667 13.3333C8.14678 13.3333 8.33333 13.1467 8.33333 12.9167C8.33333 13.1467 8.51992 13.3333 8.75 13.3333C8.98008 13.3333 9.16667 13.1467 9.16667 12.9167C9.16667 13.1467 9.35325 13.3333 9.58333 13.3333C9.81342 13.3333 10 13.1467 10 12.9167C10 13.1467 10.1866 13.3333 10.4167 13.3333C10.6467 13.3333 10.8333 13.1467 10.8333 12.9167C10.8333 12.6866 10.6467 12.5 10.4167 12.5C10.6467 12.5 10.8333 12.3134 10.8333 12.0833C10.8333 12.3134 11.0199 12.5 11.25 12.5C11.4801 12.5 11.6667 12.3134 11.6667 12.0833C11.6667 11.8532 11.4801 11.6667 11.25 11.6667C11.4801 11.6667 11.6667 11.4801 11.6667 11.25C11.6667 11.4801 11.8532 11.6667 12.0833 11.6667C12.3134 11.6667 12.5 11.4801 12.5 11.25C12.5 11.0199 12.3134 10.8333 12.0833 10.8333C12.3134 10.8333 12.5 10.6467 12.5 10.4167C12.5 10.6467 12.6866 10.8333 12.9167 10.8333C13.1467 10.8333 13.3333 10.6467 13.3333 10.4167C13.3333 10.1866 13.1467 10 12.9167 10C13.1467 10 13.3333 9.81342 13.3333 9.58333C13.3333 9.81342 13.5199 10 13.75 10C13.9801 10 14.1667 9.81342 14.1667 9.58333C14.1667 9.35325 13.9801 9.16667 13.75 9.16667C13.9801 9.16667 14.1667 8.98008 14.1667 8.75C14.1667 8.98008 14.3532 9.16667 14.5833 9.16667C14.8134 9.16667 15 8.98008 15 8.75C15 8.51992 14.8134 8.33333 14.5833 8.33333C14.8134 8.33333 15 8.14678 15 7.91667C15 8.14678 15.1866 8.33333 15.4167 8.33333C15.6467 8.33333 15.8333 8.14678 15.8333 7.91667C15.8333 7.68655 15.6467 7.5 15.4167 7.5C15.6467 7.5 15.8333 7.31345 15.8333 7.08333C15.8333 7.31345 16.0199 7.5 16.25 7.5C16.4801 7.5 16.6667 7.31345 16.6667 7.08333C16.6667 6.85322 16.4801 6.66667 16.25 6.66667C16.4801 6.66667 16.6667 6.48012 16.6667 6.25C16.6667 6.48012 16.8532 6.66667 17.0833 6.66667C17.3134 6.66667 17.5 6.48012 17.5 6.25C17.5 6.01988 17.3134 5.83333 17.0833 5.83333C17.3134 5.83333 17.5 5.64678 17.5 5.41667C17.5 5.18655 17.3134 5 17.0833 5C16.8532 5 16.6667 5.18655 16.6667 5.41667C16.6667 5.18655 16.4801 5 16.25 5C16.4801 5 16.6667 4.81345 16.6667 4.58333C16.6667 4.35322 16.4801 4.16667 16.25 4.16667C16.0199 4.16667 15.8333 4.35322 15.8333 4.58333C15.8333 4.35322 15.6467 4.16667 15.4167 4.16667C15.6467 4.16667 15.8333 3.98012 15.8333 3.75C15.8333 3.51988 15.6467 3.33333 15.4167 3.33333C15.1866 3.33333 15 3.51988 15 3.75C15 3.51988 14.8134 3.33333 14.5833 3.33333C14.8134 3.33333 15 3.14678 15 2.91667C15 2.68655 14.8134 2.5 14.5833 2.5C14.3532 2.5 14.1667 2.68655 14.1667 2.91667C14.1667 2.68655 13.9801 2.5 13.75 2.5C13.5199 2.5 13.3333 2.68655 13.3333 2.91667C13.3333 3.14678 13.5199 3.33333 13.75 3.33333C13.5199 3.33333 13.3333 3.51988 13.3333 3.75C13.3333 3.51988 13.1467 3.33333 12.9167 3.33333C12.6866 3.33333 12.5 3.51988 12.5 3.75C12.5 3.98012 12.6866 4.16667 12.9167 4.16667C12.6866 4.16667 12.5 4.35322 12.5 4.58333C12.5 4.35322 12.3134 4.16667 12.0833 4.16667C11.8532 4.16667 11.6667 4.35322 11.6667 4.58333C11.6667 4.81345 11.8532 5 12.0833 5C11.8532 5 11.6667 5.18655 11.6667 5.41667C11.6667 5.18655 11.4801 5 11.25 5C11.0199 5 10.8333 5.18655 10.8333 5.41667C10.8333 5.64678 11.0199 5.83333 11.25 5.83333C11.0199 5.83333 10.8333 6.01988 10.8333 6.25C10.8333 6.01988 10.6467 5.83333 10.4167 5.83333C10.1866 5.83333 10 6.01988 10 6.25C10 6.48012 10.1866 6.66667 10.4167 6.66667C10.1866 6.66667 10 6.85322 10 7.08333C10 6.85322 9.81342 6.66667 9.58333 6.66667C9.35325 6.66667 9.16667 6.85322 9.16667 7.08333C9.16667 7.31345 9.35325 7.5 9.58333 7.5C9.35325 7.5 9.16667 7.68655 9.16667 7.91667C9.16667 7.68655 8.98008 7.5 8.75 7.5C8.51992 7.5 8.33333 7.68655 8.33333 7.91667C8.33333 8.14678 8.51992 8.33333 8.75 8.33333C8.51992 8.33333 8.33333 8.51992 8.33333 8.75C8.33333 8.51992 8.14678 8.33333 7.91667 8.33333C7.68655 8.33333 7.5 8.51992 7.5 8.75C7.5 8.98008 7.68655 9.16667 7.91667 9.16667C7.68655 9.16667 7.5 9.35325 7.5 9.58333C7.5 9.35325 7.31345 9.16667 7.08333 9.16667C6.85322 9.16667 6.66667 9.35325 6.66667 9.58333C6.66667 9.81342 6.85322 10 7.08333 10C6.85322 10 6.66667 10.1866 6.66667 10.4167C6.66667 10.6467 6.85322 10.8333 7.08333 10.8333C6.85322 10.8333 6.66667 11.0199 6.66667 11.25C6.66667 11.4801 6.85322 11.6667 7.08333 11.6667C6.85322 11.6667 6.66667 11.8532 6.66667 12.0833C6.66667 12.3134 6.85322 12.5 7.08333 12.5C7.31345 12.5 7.5 12.3134 7.5 12.0833C7.5 12.3134 7.68655 12.5 7.91667 12.5ZM8.33333 12.0833C8.33333 12.3134 8.14678 12.5 7.91667 12.5C8.14678 12.5 8.33333 12.6866 8.33333 12.9167C8.33333 12.6866 8.51992 12.5 8.75 12.5C8.98008 12.5 9.16667 12.6866 9.16667 12.9167C9.16667 12.6866 9.35325 12.5 9.58333 12.5C9.81342 12.5 10 12.6866 10 12.9167C10 12.6866 10.1866 12.5 10.4167 12.5C10.1866 12.5 10 12.3134 10 12.0833C10 11.8532 10.1866 11.6667 10.4167 11.6667C10.6467 11.6667 10.8333 11.8532 10.8333 12.0833C10.8333 11.8532 11.0199 11.6667 11.25 11.6667C11.0199 11.6667 10.8333 11.4801 10.8333 11.25C10.8333 11.0199 11.0199 10.8333 11.25 10.8333C11.4801 10.8333 11.6667 11.0199 11.6667 11.25C11.6667 11.0199 11.8532 10.8333 12.0833 10.8333C11.8532 10.8333 11.6667 10.6467 11.6667 10.4167C11.6667 10.1866 11.8532 10 12.0833 10C12.3134 10 12.5 10.1866 12.5 10.4167C12.5 10.1866 12.6866 10 12.9167 10C12.6866 10 12.5 9.81342 12.5 9.58333C12.5 9.35325 12.6866 9.16667 12.9167 9.16667C13.1467 9.16667 13.3333 9.35325 13.3333 9.58333C13.3333 9.35325 13.5199 9.16667 13.75 9.16667C13.5199 9.16667 13.3333 8.98008 13.3333 8.75C13.3333 8.51992 13.5199 8.33333 13.75 8.33333C13.9801 8.33333 14.1667 8.51992 14.1667 8.75C14.1667 8.51992 14.3532 8.33333 14.5833 8.33333C14.3532 8.33333 14.1667 8.14678 14.1667 7.91667C14.1667 7.68655 14.3532 7.5 14.5833 7.5C14.8134 7.5 15 7.68655 15 7.91667C15 7.68655 15.1866 7.5 15.4167 7.5C15.1866 7.5 15 7.31345 15 7.08333C15 6.85322 15.1866 6.66667 15.4167 6.66667C15.6467 6.66667 15.8333 6.85322 15.8333 7.08333C15.8333 6.85322 16.0199 6.66667 16.25 6.66667C16.0199 6.66667 15.8333 6.48012 15.8333 6.25C15.8333 6.01988 16.0199 5.83333 16.25 5.83333C16.4801 5.83333 16.6667 6.01988 16.6667 6.25C16.6667 6.01988 16.8532 5.83333 17.0833 5.83333C16.8532 5.83333 16.6667 5.64678 16.6667 5.41667C16.6667 5.64678 16.4801 5.83333 16.25 5.83333C16.0199 5.83333 15.8333 5.64678 15.8333 5.41667C15.8333 5.18655 16.0199 5 16.25 5C16.0199 5 15.8333 4.81345 15.8333 4.58333C15.8333 4.81345 15.6467 5 15.4167 5C15.1866 5 15 4.81345 15 4.58333C15 4.35322 15.1866 4.16667 15.4167 4.16667C15.1866 4.16667 15 3.98012 15 3.75C15 3.98012 14.8134 4.16667 14.5833 4.16667C14.3532 4.16667 14.1667 3.98012 14.1667 3.75C14.1667 3.51988 14.3532 3.33333 14.5833 3.33333C14.3532 3.33333 14.1667 3.14678 14.1667 2.91667C14.1667 3.14678 13.9801 3.33333 13.75 3.33333C13.9801 3.33333 14.1667 3.51988 14.1667 3.75C14.1667 3.98012 13.9801 4.16667 13.75 4.16667C13.5199 4.16667 13.3333 3.98012 13.3333 3.75C13.3333 3.98012 13.1467 4.16667 12.9167 4.16667C13.1467 4.16667 13.3333 4.35322 13.3333 4.58333C13.3333 4.81345 13.1467 5 12.9167 5C12.6866 5 12.5 4.81345 12.5 4.58333C12.5 4.81345 12.3134 5 12.0833 5C12.3134 5 12.5 5.18655 12.5 5.41667C12.5 5.64678 12.3134 5.83333 12.0833 5.83333C11.8532 5.83333 11.6667 5.64678 11.6667 5.41667C11.6667 5.64678 11.4801 5.83333 11.25 5.83333C11.4801 5.83333 11.6667 6.01988 11.6667 6.25C11.6667 6.48012 11.4801 6.66667 11.25 6.66667C11.0199 6.66667 10.8333 6.48012 10.8333 6.25C10.8333 6.48012 10.6467 6.66667 10.4167 6.66667C10.6467 6.66667 10.8333 6.85322 10.8333 7.08333C10.8333 7.31345 10.6467 7.5 10.4167 7.5C10.1866 7.5 10 7.31345 10 7.08333C10 7.31345 9.81342 7.5 9.58333 7.5C9.81342 7.5 10 7.68655 10 7.91667C10 8.14678 9.81342 8.33333 9.58333 8.33333C9.35325 8.33333 9.16667 8.14678 9.16667 7.91667C9.16667 8.14678 8.98008 8.33333 8.75 8.33333C8.98008 8.33333 9.16667 8.51992 9.16667 8.75C9.16667 8.98008 8.98008 9.16667 8.75 9.16667C8.51992 9.16667 8.33333 8.98008 8.33333 8.75C8.33333 8.98008 8.14678 9.16667 7.91667 9.16667C8.14678 9.16667 8.33333 9.35325 8.33333 9.58333C8.33333 9.81342 8.14678 10 7.91667 10C7.68655 10 7.5 9.81342 7.5 9.58333C7.5 9.81342 7.31345 10 7.08333 10C7.31345 10 7.5 10.1866 7.5 10.4167C7.5 10.6467 7.31345 10.8333 7.08333 10.8333C7.31345 10.8333 7.5 11.0199 7.5 11.25C7.5 11.4801 7.31345 11.6667 7.08333 11.6667C7.31345 11.6667 7.5 11.8532 7.5 12.0833C7.5 11.8532 7.68655 11.6667 7.91667 11.6667C8.14678 11.6667 8.33333 11.8532 8.33333 12.0833ZM9.16667 12.0833C9.16667 11.8532 9.35325 11.6667 9.58333 11.6667C9.81342 11.6667 10 11.8532 10 12.0833C10 12.3134 9.81342 12.5 9.58333 12.5C9.35325 12.5 9.16667 12.3134 9.16667 12.0833ZM9.16667 12.0833C9.16667 11.8532 8.98008 11.6667 8.75 11.6667C8.51992 11.6667 8.33333 11.8532 8.33333 12.0833C8.33333 12.3134 8.51992 12.5 8.75 12.5C8.98008 12.5 9.16667 12.3134 9.16667 12.0833ZM7.91667 10.8333C7.68655 10.8333 7.5 10.6467 7.5 10.4167C7.5 10.1866 7.68655 10 7.91667 10C8.14678 10 8.33333 10.1866 8.33333 10.4167C8.33333 10.6467 8.14678 10.8333 7.91667 10.8333ZM7.91667 10.8333C8.14678 10.8333 8.33333 11.0199 8.33333 11.25C8.33333 11.4801 8.14678 11.6667 7.91667 11.6667C7.68655 11.6667 7.5 11.4801 7.5 11.25C7.5 11.0199 7.68655 10.8333 7.91667 10.8333ZM8.33333 9.58333C8.33333 9.81342 8.51992 10 8.75 10C8.98008 10 9.16667 9.81342 9.16667 9.58333C9.16667 9.35325 8.98008 9.16667 8.75 9.16667C8.51992 9.16667 8.33333 9.35325 8.33333 9.58333ZM9.16667 8.75C9.16667 8.51992 9.35325 8.33333 9.58333 8.33333C9.81342 8.33333 10 8.51992 10 8.75C10 8.98008 9.81342 9.16667 9.58333 9.16667C9.35325 9.16667 9.16667 8.98008 9.16667 8.75ZM10 7.91667C10 8.14678 10.1866 8.33333 10.4167 8.33333C10.6467 8.33333 10.8333 8.14678 10.8333 7.91667C10.8333 7.68655 10.6467 7.5 10.4167 7.5C10.1866 7.5 10 7.68655 10 7.91667ZM10.8333 7.08333C10.8333 6.85322 11.0199 6.66667 11.25 6.66667C11.4801 6.66667 11.6667 6.85322 11.6667 7.08333C11.6667 7.31345 11.4801 7.5 11.25 7.5C11.0199 7.5 10.8333 7.31345 10.8333 7.08333ZM11.6667 6.25C11.6667 6.48012 11.8532 6.66667 12.0833 6.66667C12.3134 6.66667 12.5 6.48012 12.5 6.25C12.5 6.01988 12.3134 5.83333 12.0833 5.83333C11.8532 5.83333 11.6667 6.01988 11.6667 6.25ZM12.5 5.41667C12.5 5.18655 12.6866 5 12.9167 5C13.1467 5 13.3333 5.18655 13.3333 5.41667C13.3333 5.64678 13.1467 5.83333 12.9167 5.83333C12.6866 5.83333 12.5 5.64678 12.5 5.41667ZM14.1667 4.58333C14.1667 4.35322 13.9801 4.16667 13.75 4.16667C13.5199 4.16667 13.3333 4.35322 13.3333 4.58333C13.3333 4.81345 13.5199 5 13.75 5C13.9801 5 14.1667 4.81345 14.1667 4.58333ZM14.1667 4.58333C14.1667 4.81345 14.3532 5 14.5833 5C14.8134 5 15 4.81345 15 4.58333C15 4.35322 14.8134 4.16667 14.5833 4.16667C14.3532 4.16667 14.1667 4.35322 14.1667 4.58333ZM15.4167 5.83333C15.6467 5.83333 15.8333 5.64678 15.8333 5.41667C15.8333 5.18655 15.6467 5 15.4167 5C15.1866 5 15 5.18655 15 5.41667C15 5.64678 15.1866 5.83333 15.4167 5.83333ZM15.4167 5.83333C15.1866 5.83333 15 6.01988 15 6.25C15 6.48012 15.1866 6.66667 15.4167 6.66667C15.6467 6.66667 15.8333 6.48012 15.8333 6.25C15.8333 6.01988 15.6467 5.83333 15.4167 5.83333ZM15 7.08333C15 6.85322 14.8134 6.66667 14.5833 6.66667C14.3532 6.66667 14.1667 6.85322 14.1667 7.08333C14.1667 7.31345 14.3532 7.5 14.5833 7.5C14.8134 7.5 15 7.31345 15 7.08333ZM14.1667 7.91667C14.1667 8.14678 13.9801 8.33333 13.75 8.33333C13.5199 8.33333 13.3333 8.14678 13.3333 7.91667C13.3333 7.68655 13.5199 7.5 13.75 7.5C13.9801 7.5 14.1667 7.68655 14.1667 7.91667ZM13.3333 8.75C13.3333 8.51992 13.1467 8.33333 12.9167 8.33333C12.6866 8.33333 12.5 8.51992 12.5 8.75C12.5 8.98008 12.6866 9.16667 12.9167 9.16667C13.1467 9.16667 13.3333 8.98008 13.3333 8.75ZM12.5 9.58333C12.5 9.81342 12.3134 10 12.0833 10C11.8532 10 11.6667 9.81342 11.6667 9.58333C11.6667 9.35325 11.8532 9.16667 12.0833 9.16667C12.3134 9.16667 12.5 9.35325 12.5 9.58333ZM11.6667 10.4167C11.6667 10.6467 11.4801 10.8333 11.25 10.8333C11.0199 10.8333 10.8333 10.6467 10.8333 10.4167C10.8333 10.1866 11.0199 10 11.25 10C11.4801 10 11.6667 10.1866 11.6667 10.4167ZM10.8333 11.25C10.8333 11.4801 10.6467 11.6667 10.4167 11.6667C10.1866 11.6667 10 11.4801 10 11.25C10 11.0199 10.1866 10.8333 10.4167 10.8333C10.6467 10.8333 10.8333 11.0199 10.8333 11.25Z" fill="#D8D1CC"/>
</svg>
